<svg xmlns="http://www.w3.org/2000/svg" width="820" height="220" viewBox="0 0 820 220" role="img" aria-labelledby="slotcityLogoTitle">
  <title id="slotcityLogoTitle">SlotCity</title>
  <defs>
    <linearGradient id="slotcity-gold" x1="0%" y1="0%" x2="100%" y2="100%">
      <stop offset="0%" stop-color="#FFF1A1" />
      <stop offset="34%" stop-color="#FFD85B" />
      <stop offset="68%" stop-color="#F5B623" />
      <stop offset="100%" stop-color="#B56A0F" />
    </linearGradient>
    <linearGradient id="slotcity-plaque" x1="0%" y1="0%" x2="100%" y2="100%">
      <stop offset="0%" stop-color="#5A2A06" />
      <stop offset="48%" stop-color="#8E4A11" />
      <stop offset="100%" stop-color="#472003" />
    </linearGradient>
    <filter id="slotcity-shadow" x="-10%" y="-20%" width="120%" height="160%">
      <feDropShadow dx="0" dy="10" stdDeviation="10" flood-color="#000" flood-opacity="0.35" />
    </filter>
  </defs>
  <g filter="url(#slotcity-shadow)">
    <path
      d="M66 36h688c20 0 36 16 36 36v30c0 20-16 36-36 36h-85l-27 40H178l-27-40H66c-20 0-36-16-36-36V72c0-20 16-36 36-36Z"
      fill="url(#slotcity-plaque)"
      stroke="#D79B2C"
      stroke-width="10"
      stroke-linejoin="round"
    />
    <path
      d="M80 58h660c18 0 32 14 32 32v2c0 18-14 32-32 32H80c-18 0-32-14-32-32v-2c0-18 14-32 32-32Z"
      fill="rgba(255,255,255,0.08)"
    />
  </g>
  <text
    x="410"
    y="125"
    text-anchor="middle"
    fill="url(#slotcity-gold)"
    stroke="#4D2200"
    stroke-width="12"
    paint-order="stroke fill"
    font-family="Georgia, 'Times New Roman', serif"
    font-size="112"
    font-style="italic"
    font-weight="700"
    letter-spacing="-3"
  >
    SlotCity
  </text>
</svg>
